# xmcd
#
# Track frame offsets: 
#        150
#        1729
#        49622
#        99951
#        139402
#        181809
#        193826
#
# Disc length: 3934 seconds
#
# Revision: 1
# Processed by: cddbd v1.5.2PL0 Copyright (c) Steve Scherf et al.
# Submitted via: ExactAudioCopy v0.99pb5
#
DISCID=520f5c07
DTITLE=Don Cherry - Live at Cafe Montmartre 1966 Vol.2
DYEAR=1966
DGENRE=Jazz
TTITLE0=Intro
TTITLE1=Orfeu Negro
TTITLE2=Suite for Albert Ayler
TTITLE3=Spring is Here
TTITLE4=Remembrance
TTITLE5=Elephantasy -incomplete
TTITLE6=Complete Communion
EXTD=YEAR: 1966
EXTT0=
EXTT1=
EXTT2=
EXTT3=
EXTT4=
EXTT5=
EXTT6=
PLAYORDER=
